<?xml version="1.0" encoding="utf-8" ?>
<svg xmlns="http://www.w3.org/2000/svg" xmlns:cc="http://creativecommons.org/ns" xmlns:dc="http://purl.org/dc/elements/1.1/" xmlns:ev="http://www.w3.org/2001/xml-events" xmlns:inkscape="http://www.inkscape.org/namespaces/inkscape" xmlns:rdf="http://www.w3.org/1999/02/22-rdf-syntax-ns" xmlns:sodipodi="http://sodipodi.sourceforge.net/DTD/sodipodi-0.dtd" xmlns:xlink="http://www.w3.org/1999/xlink" baseProfile="tiny" height="0.84666667cm" version="1.2" viewBox="0 0 32.0 32.0" width="0.84666667cm">
  <metadata>
    <rdf:RDF>
      <cc:Work>
        <dc:format>image/svg+xml</dc:format>
        <dc:source>vpype read data/projects/4b9f302a0afb49ec94c47107b1f3ed3f/source/5f14d8964c7a4a7ea3ecd963d1afeb3d_agent.svg write data/projects/4b9f302a0afb49ec94c47107b1f3ed3f/intermediate/5f14d8964c7a4a7ea3ecd963d1afeb3d_processed.svg
</dc:source>
        <dc:date>2026-02-05T19:36:03.266718</dc:date>
      </cc:Work>
    </rdf:RDF>
  </metadata>
  <defs/>
  <g fill="none" id="layer1" inkscape:groupmode="layer" inkscape:label="1" stroke="#000000" style="display:inline">
    <polygon points="10.0,6.0 10.0786,5.6108 10.2929,5.2929 10.6107,5.0786 11.0,5.0 21.0,5.0 21.3893,5.0786 21.7071,5.2929 21.9214,5.6108 22.0,6.0 22.0,11.0 21.9793,11.409 21.9187,11.8061 21.8202,12.1895 21.6857,12.557 21.5172,12.9066 21.3169,13.2364 21.0866,13.5444 20.8284,13.8284 20.5444,14.0866 20.2364,14.3169 19.9066,14.5172 19.557,14.6857 19.1895,14.8202 18.8061,14.9187 18.409,14.9793 18.0,15.0 14.0,15.0 13.591,14.9793 13.1939,14.9187 12.8105,14.8202 12.443,14.6857 12.0934,14.5172 11.7636,14.3169 11.4556,14.0866 11.1716,13.8284 10.9134,13.5444 10.6831,13.2364 10.4828,12.9066 10.3143,12.557 10.1798,12.1895 10.0813,11.8061 10.0207,11.409 10.0,11.0"/>
    <line x1="16.0" x2="16.0" y1="5.0" y2="3.0"/>
    <polygon points="15.5,9.0 15.4489,9.3882 15.299,9.75 15.0607,10.0607 14.75,10.299 14.3882,10.4489 14.0,10.5 13.6118,10.4489 13.25,10.299 12.9393,10.0607 12.701,9.75 12.5511,9.3882 12.5,9.0 12.5511,8.6118 12.701,8.25 12.9393,7.9393 13.25,7.701 13.6118,7.5511 14.0,7.5 14.3882,7.5511 14.75,7.701 15.0607,7.9393 15.299,8.25 15.4489,8.6118"/>
    <polygon points="19.5,9.0 19.4489,9.3882 19.299,9.75 19.0607,10.0607 18.75,10.299 18.3882,10.4489 18.0,10.5 17.6118,10.4489 17.25,10.299 16.9393,10.0607 16.701,9.75 16.5511,9.3882 16.5,9.0 16.5511,8.6118 16.701,8.25 16.9393,7.9393 17.25,7.701 17.6118,7.5511 18.0,7.5 18.3882,7.5511 18.75,7.701 19.0607,7.9393 19.299,8.25 19.4489,8.6118"/>
    <polyline points="26.0,27.0 25.9912,26.6196 25.9651,26.2431 25.9221,25.8711 25.8624,25.5036 25.7865,25.1411 25.6946,24.784 25.5871,24.4323 25.4644,24.0866 25.3269,23.7471 25.1748,23.4142 25.0085,23.088 24.8283,22.769 24.6347,22.4575 24.4279,22.1538 24.2083,21.8581 23.9763,21.5708 23.7321,21.2923 23.4762,21.0227 23.2089,20.7625 22.9305,20.512 22.6414,20.2714 22.3419,20.0411 22.0324,19.8213 21.7132,19.6125 21.3847,19.4149 21.0472,19.2288 20.701,19.0545 20.3466,18.8924 19.9842,18.7427 19.6143,18.6058 19.237,18.482 18.8529,18.3716 18.4622,18.2749 18.0654,18.1922 17.6626,18.1238 17.2544,18.0701 16.8409,18.0314 16.4227,18.0079 16.0,18.0 15.5773,18.0079 15.1591,18.0314 14.7456,18.0701 14.3374,18.1238 13.9346,18.1922 13.5378,18.2749 13.1471,18.3716 12.763,18.482 12.3857,18.6058 12.0158,18.7427 11.6534,18.8924 11.299,19.0545 10.9528,19.2288 10.6153,19.4149 10.2868,19.6125 9.9676,19.8213 9.6581,20.0411 9.3586,20.2714 9.0695,20.512 8.7911,20.7625 8.5238,21.0227 8.2679,21.2923 8.0237,21.5708 7.7917,21.8581 7.5721,22.1538 7.3653,22.4575 7.1717,22.769 6.9915,23.088 6.8252,23.4142 6.6731,23.7471 6.5356,24.0866 6.4129,24.4323 6.3054,24.784 6.2135,25.1411 6.1376,25.5036 6.0779,25.8711 6.0349,26.2431 6.0088,26.6196 6.0,27.0"/>
  </g>
</svg>
